<?xml version="1.0" encoding="utf-8"?>
<!-- Generator: Adobe Illustrator 27.1.1, SVG Export Plug-In . SVG Version: 6.00 Build 0)  -->
<svg version="1.1" id="Layer_1" xmlns="http://www.w3.org/2000/svg" xmlns:xlink="http://www.w3.org/1999/xlink" x="0px" y="0px"
	 viewBox="0 0 800 800" style="enable-background:new 0 0 800 800;" xml:space="preserve">
<style type="text/css">
	.st0{opacity:0.81;fill:#00B22D;}
</style>
<path class="st0" d="M688,801.1H112c-61.9,0-112-50.1-112-112v-576c0-61.9,50.1-112,112-112h576c61.9,0,112,50.1,112,112v576
	C800,751,749.9,801.1,688,801.1z"/>
<path d="M86.3,486.8h45.3V386.2h43.1v100.6h45V348.9h-88.1v-8.5c0-0.1,0-0.1,0-0.2c0-8.3,6.7-15.1,15.1-15.1c0.7,0,1.4,0,2.2,0.2
	h-0.1h26V288h-33.5c-1.5-0.2-3.3-0.3-5.2-0.3c-27.5,0-49.8,22.3-49.8,49.8c0,0,0,0.1,0,0.1l0,0V349H60.6v37.2h25.7L86.3,486.8
	L86.3,486.8z M273,486.8h40l50-137.9h-45.8l-24.3,80.2L268,348.9h-45.6L273,486.8L273,486.8z M447,401.9
	c-0.8-12.8-11.3-22.9-24.3-22.9c-0.3,0-0.6,0-0.9,0h0c-0.7-0.1-1.5-0.1-2.3-0.1c-12.8,0-23.2,10.3-23.4,23v0H447z M491.1,428.6h-95
	c1.1,13.7,12.4,24.4,26.3,24.4c0.7,0,1.5,0,2.2-0.1h-0.1c0.9,0.1,1.9,0.2,2.9,0.2c9.3,0,17.2-5.7,20.5-13.8l0-0.2l40.3,11.3
	c-10.7,23-33.7,38.7-60.3,38.7c-1.2,0-2.5,0-3.7-0.1h0.2c-0.8,0-1.7,0-2.7,0c-38.3,0-69.4-31.1-69.4-69.4c0-0.6,0-1.2,0-1.8v0.1
	c-0.1-1.1-0.1-2.4-0.1-3.8c0-37.1,30.1-67.1,67.1-67.1c0.8,0,1.6,0,2.4,0h-0.1c1.4-0.1,2.9-0.2,4.5-0.2c36.1,0,65.4,29.3,65.4,65.4
	c0,1,0,2-0.1,3v-0.1C491.7,421.5,491.4,425.6,491.1,428.6L491.1,428.6z M683.1,386.2h-24c-15.4,0-23.8,11.6-23.8,30.9v69.8h-45.5
	V386.2h-19.4c-15.5,0-23.8,11.6-23.8,30.9v69.8h-45.5V349h45.5v20.9c4.5-12.4,16.2-21.1,29.9-21.1c1.1,0,2.1,0,3.1,0.2h-0.1h55.8
	V370c4.5-12.4,16.2-21.1,29.9-21.1c1.1,0,2.1,0,3.1,0.2h-0.1h14.9L683.1,386.2z M711.3,491L711.3,491c15.6,0,28.2-12.6,28.2-28.1
	c0-15.5-12.6-28.1-28.1-28.1c-15.5,0-28.1,12.6-28.1,28.1c0,5.2,1.4,10,3.8,14.2l-0.1-0.1C691.9,485.4,700.9,491,711.3,491
	L711.3,491L711.3,491z"/>
</svg>
